<?xml version="1.0" encoding="UTF-8"?>
<svg width="69px" height="108px" viewBox="0 0 69 108" version="1.1" xmlns="http://www.w3.org/2000/svg" xmlns:xlink="http://www.w3.org/1999/xlink">
    <!-- Generator: Sketch 43.2 (39069) - http://www.bohemiancoding.com/sketch -->
    <title>logo/lds</title>
    <desc>Created with Sketch.</desc>
    <defs></defs>
    <g id="Page-1" stroke="none" stroke-width="1" fill="none" fill-rule="evenodd">
        <g id="Email-Copy-2" transform="translate(-516.000000, -369.000000)">
            <g id="logo/lds" transform="translate(516.000000, 369.000000)">
                <g id="Group">
                    <polygon id="Shape" fill="#808080" fill-rule="nonzero" points="21.045 106.71907 1.125 106.71907 1.125 104.860465 19.355 104.860465 19.355 96.8232558 21.035 96.8232558"></polygon>
                    <path d="M21.395,87.2690233 C21.4158231,88.6083851 21.1480335,89.9364247 20.61,91.1620465 C20.1110817,92.2836481 19.3798192,93.2854622 18.465,94.1006512 C17.5272815,94.9238841 16.438576,95.555233 15.26,95.9592558 C13.9878186,96.3991618 12.6503826,96.6182916 11.305,96.6072558 C9.85454213,96.6242665 8.41089585,96.4054401 7.03,95.9592558 C5.80534973,95.5643889 4.67507414,94.9196662 3.71,94.0654884 C2.77685812,93.2230016 2.04091962,92.1834354 1.555,91.0213953 C1.02201394,89.7205918 0.759959021,88.3238731 0.785,86.9173953 C0.762948513,85.6069433 1.02038313,84.3069322 1.54,83.1047442 C2.02607424,82.0063376 2.74238048,81.0262593 3.64,80.2314419 C4.5686944,79.419801 5.64761879,78.8001613 6.815,78.408 C8.10377359,77.9739968 9.45583377,77.7600568 10.815,77.7750698 C12.2403131,77.7627188 13.6588879,77.9728513 15.02,78.3979535 C16.2481967,78.7773257 17.3887674,79.3989334 18.375,80.2264186 C19.3268823,81.0397486 20.0868823,82.0555074 20.6,83.200186 C21.1547339,84.4827564 21.425969,85.8709469 21.395,87.2690233 Z M2.47,87.1133023 C2.4488452,88.2257906 2.68504503,89.3280246 3.16,90.3332093 C3.60246433,91.2476739 4.23704485,92.0548717 5.02,92.6991628 C5.83499849,93.3577304 6.7686908,93.8523307 7.77,94.155907 C8.85746998,94.4890388 9.98809957,94.6583217 11.125,94.6582326 C12.222382,94.6714038 13.3157325,94.5224633 14.37,94.216186 C15.3584568,93.935966 16.2860574,93.472564 17.105,92.8498605 C17.902166,92.2331935 18.5500256,91.4432159 19,90.5391628 C19.4919797,89.5230813 19.7353937,88.4036799 19.71,87.2740465 C19.7335891,86.1450374 19.5135467,85.0242854 19.065,83.9888372 C18.6563301,83.0730091 18.043953,82.2635924 17.275,81.6228837 C16.469038,80.967695 15.5408579,80.4809519 14.545,80.1912558 C13.4225707,79.8535998 12.256659,79.6843318 11.085,79.6889302 C9.96442983,79.6834813 8.84807034,79.8270535 7.765,80.115907 C6.77246063,80.3732948 5.83984072,80.8238536 5.02,81.4420465 C4.23060073,82.0513811 3.59369861,82.8374512 3.16,83.7376744 C2.67178684,84.7936487 2.43552522,85.9494911 2.47,87.1133023 L2.47,87.1133023 Z" id="Shape" fill="#808080" fill-rule="nonzero"></path>
                    <path d="M21.045,61.2083721 L5.045,72.319814 C4.84166667,72.4604651 4.63333333,72.5977674 4.42,72.7317209 C4.22150164,72.858589 4.01237744,72.9678393 3.795,73.0582326 L3.795,73.1285581 C3.96166667,73.1084651 4.19333333,73.0917209 4.49,73.0783256 C4.78666667,73.0649302 5.15666667,73.0649302 5.6,73.0783256 L21.035,73.0783256 L21.035,74.9369302 L1.125,74.9369302 L1.125,72.8824186 L16.925,61.951814 C17.175,61.7843721 17.4083333,61.6336744 17.625,61.4997209 L18.23,61.128 L18.23,61.0476279 C17.9233333,61.0844651 17.58,61.1129302 17.2,61.1330233 C16.82,61.1531163 16.3983333,61.1631628 15.935,61.1631628 L1.125,61.1631628 L1.125,59.2945116 L21.05,59.2945116 L21.045,61.2083721 Z" id="Shape" fill="#808080" fill-rule="nonzero"></path>
                    <path d="M21.045,55.0900465 L1.125,55.0900465 L1.125,49.8256744 C1.125,46.399814 1.94166667,43.8128372 3.575,42.0647442 C5.20833333,40.3166512 7.62333333,39.4442791 10.82,39.4476279 C12.2514627,39.4291379 13.6739008,39.6778172 15.015,40.1810233 C16.23195,40.6415514 17.3342453,41.3632617 18.245,42.295814 C19.161761,43.2540476 19.8671038,44.3957188 20.315,45.6463256 C20.8205062,47.070793 21.0677497,48.5747646 21.045,50.0868837 L21.045,55.0900465 Z M2.815,53.2314419 L19.355,53.2314419 L19.355,50.1622326 C19.3743824,48.9091767 19.1868395,47.6615623 18.8,46.4701395 C18.4624264,45.4417635 17.9042949,44.5003587 17.165,43.7123721 C16.4208906,42.941559 15.5109687,42.3521702 14.505,41.9893953 C13.3365774,41.575246 12.1038142,41.3745006 10.865,41.3966512 C5.49166667,41.3966512 2.805,44.2431628 2.805,49.936186 L2.815,53.2314419 Z" id="Shape" fill="#808080" fill-rule="nonzero"></path>
                    <path d="M21.395,28.2809302 C21.4156651,29.6202775 21.1478823,30.9482834 20.61,32.1739535 C20.1109484,33.2954772 19.3797053,34.2972649 18.465,35.1125581 C17.5272815,35.9357911 16.438576,36.5671399 15.26,36.9711628 C13.9878186,37.4110688 12.6503826,37.6301986 11.305,37.6191628 C9.85453606,37.6362618 8.41087572,37.4174333 7.03,36.9711628 C5.80534973,36.5762958 4.67507414,35.9315732 3.71,35.0773953 C2.77685812,34.2349086 2.04091962,33.1953424 1.555,32.0333023 C1.02201394,30.7324988 0.759959021,29.3357801 0.785,27.9293023 C0.762948513,26.6188503 1.02038313,25.3188392 1.54,24.1166512 C2.02607424,23.0182446 2.74238048,22.0381663 3.64,21.2433488 C4.5686944,20.431708 5.64761879,19.8120683 6.815,19.419907 C8.10377359,18.9859037 9.45583377,18.7719638 10.815,18.7869767 C12.2403131,18.7746258 13.6588879,18.9847583 15.02,19.4098605 C16.2482489,19.789108 17.3888431,20.4107285 18.375,21.2383256 C19.3268823,22.0516556 20.0868823,23.0674143 20.6,24.212093 C21.1547339,25.4946633 21.425969,26.8828538 21.395,28.2809302 Z M2.47,28.1252093 C2.4488452,29.2376976 2.68504503,30.3399316 3.16,31.3451163 C3.60246433,32.2595808 4.23704485,33.0667787 5.02,33.7110698 C5.83499849,34.3696374 6.7686908,34.8642377 7.77,35.167814 C8.85746998,35.5009458 9.98809957,35.6702287 11.125,35.6701395 C12.222382,35.6833107 13.3157325,35.5343703 14.37,35.228093 C15.3584143,34.9477624 16.2859952,34.4843702 17.105,33.8617674 C17.902166,33.2451005 18.5500256,32.4551229 19,31.5510698 C19.4919797,30.5349883 19.7353937,29.4155869 19.71,28.2859535 C19.7335891,27.1569444 19.5135467,26.0361924 19.065,25.0007442 C18.6564842,24.0848242 18.0440823,23.2753748 17.275,22.6347907 C16.469038,21.9796019 15.5408579,21.4928589 14.545,21.2031628 C13.4225707,20.8655068 12.256659,20.6962388 11.085,20.7008372 C9.96442623,20.6953293 8.84805904,20.8389025 7.765,21.127814 C6.77246063,21.3852017 5.83984072,21.8357606 5.02,22.4539535 C4.23072995,23.0634216 3.59385495,23.8494582 3.16,24.7495814 C2.67102306,25.8070831 2.43474305,26.9647357 2.47,28.1302326 L2.47,28.1252093 Z" id="Shape" fill="#808080" fill-rule="nonzero"></path>
                    <path d="M21.045,2.07460465 L5.045,13.1860465 C4.84166667,13.3266977 4.63333333,13.464 4.42,13.5979535 C4.22151434,13.7248436 4.01238817,13.834095 3.795,13.9244651 L3.795,13.9947907 C3.96166667,13.9746977 4.19333333,13.9579535 4.49,13.9445581 C4.78666667,13.9311628 5.15666667,13.9311628 5.6,13.9445581 L21.035,13.9445581 L21.035,15.8031628 L1.125,15.8031628 L1.125,13.7486512 L16.92,2.77786047 C17.17,2.6104186 17.4033333,2.45972093 17.62,2.32576744 L18.225,1.95404651 L18.225,1.88372093 C17.9183333,1.92055814 17.575,1.94902326 17.195,1.96911628 C16.815,1.9892093 16.3933333,1.99925581 15.93,1.99925581 L1.125,1.99925581 L1.125,0.130604651 L21.05,0.130604651 L21.045,2.07460465 Z" id="Shape" fill="#808080" fill-rule="nonzero"></path>
                    <path d="M44.76,106.71907 L24.855,106.71907 L24.855,101.454698 C24.855,98.0288372 25.6716667,95.4418605 27.305,93.6937674 C28.9383333,91.9456744 31.3533333,91.0716279 34.55,91.0716279 C35.9814627,91.0531379 37.4039008,91.3018172 38.745,91.8050233 C39.96195,92.2655514 41.0642453,92.9872617 41.975,93.919814 C42.8918801,94.8779547 43.5972396,96.0196528 44.045,97.2703256 C44.5505062,98.694793 44.7977497,100.198765 44.775,101.710884 L44.76,106.71907 Z M26.53,104.860465 L43.08,104.860465 L43.08,101.791256 C43.0993824,100.5382 42.9118395,99.2905855 42.525,98.0991628 C42.1874264,97.0707867 41.6292949,96.1293819 40.89,95.3413953 C40.1458906,94.5705822 39.2359687,93.9811934 38.23,93.6184186 C37.0615774,93.2042693 35.8288142,93.0035239 34.59,93.0256744 C29.2166667,93.0256744 26.53,95.872186 26.53,101.565209 L26.53,104.860465 Z" id="Shape" fill="#000000" fill-rule="nonzero"></path>
                    <polygon id="Shape" fill="#000000" fill-rule="nonzero" points="44.76 86.2091163 44.76 88.0677209 24.855 88.0677209 24.855 86.2091163"></polygon>
                    <path d="M43.385,67.2915349 C44.5162489,69.2802125 45.1108726,71.5312448 45.11,73.8217674 C45.1309952,75.1620028 44.8774089,76.492256 44.365,77.7298605 C43.8934878,78.8490674 43.1874652,79.8530615 42.295,80.6734884 C41.3749827,81.5041313 40.2964724,82.1381823 39.125,82.5371163 C37.8212524,82.9819149 36.4517806,83.2010304 35.075,83.1851163 C34.1310486,83.1874085 33.1899332,83.0812302 32.27,82.8686512 C31.3923046,82.6677298 30.5425768,82.3589878 29.74,81.9493953 C28.9624916,81.5459822 28.2426739,81.0390904 27.6,80.4424186 C26.9571593,79.8540464 26.4000192,79.1776337 25.945,78.4331163 C25.4719367,77.6509379 25.1116828,76.8053082 24.875,75.9214884 C24.6188368,74.96168 24.4926998,73.9715454 24.5,72.9778605 C24.4675878,71.1540018 24.8274504,69.3446063 25.555,67.6733023 L27.595,67.6733023 C26.657371,69.3619306 26.1699506,71.2653096 26.18,73.1988837 C26.1625683,74.3374905 26.389375,75.4665193 26.845,76.5092093 C27.2724335,77.4676941 27.8979459,78.3238545 28.68,79.0208372 C29.4881279,79.7317758 30.4252767,80.2792829 31.44,80.6333023 C32.5502888,81.0241259 33.718535,81.2228532 34.895,81.2210233 C36.0508776,81.2346282 37.2016659,81.0651061 38.305,80.7186977 C39.2947958,80.4165438 40.2133105,79.9158465 41.005,79.2468837 C41.7719116,78.5864688 42.3803934,77.7605107 42.785,76.8306977 C43.2293098,75.7817246 43.4474296,74.6501012 43.425,73.5103256 C43.4631944,71.9728039 43.0994314,70.4520957 42.37,69.099907 L36.3,69.099907 L36.3,73.6509767 L34.62,73.6509767 L34.62,67.2413023 L43.385,67.2915349 Z" id="Shape" fill="#000000" fill-rule="nonzero"></path>
                    <polygon id="Shape" fill="#000000" fill-rule="nonzero" points="44.76 61.8011163 44.76 63.6597209 24.855 63.6597209 24.855 61.8011163"></polygon>
                    <polygon id="Shape" fill="#000000" fill-rule="nonzero" points="26.53 52.1564651 44.76 52.1564651 44.76 54.0150698 26.53 54.0150698 26.53 59.7817674 24.855 59.7817674 24.855 46.3746977 26.55 46.3746977"></polygon>
                    <path d="M44.76,33.5453023 L38.855,35.7505116 L38.855,44.3352558 L44.76,46.480186 L44.76,48.5447442 L24.855,40.9294884 L24.855,39.0608372 L44.78,31.4807442 L44.76,33.5453023 Z M28.325,39.6435349 C28.1483333,39.7071628 27.945,39.7741395 27.715,39.8444651 C27.4559045,39.9208623 27.1919712,39.9796005 26.925,40.0202791 L26.925,40.0755349 C27.1914821,40.1252049 27.4551797,40.1889208 27.715,40.2664186 C27.945,40.3367442 28.1483333,40.4037209 28.325,40.4673488 L37.19,43.7073488 L37.19,36.3784186 L28.325,39.6435349 Z" id="Shape" fill="#000000" fill-rule="nonzero"></path>
                    <polygon id="Shape" fill="#000000" fill-rule="nonzero" points="44.76 29.3257674 24.855 29.3257674 24.855 27.4671628 43.1 27.4671628 43.1 19.4299535 44.78 19.4299535"></polygon>
                    <path d="M65.555,107.502698 C65.8136569,107.154398 66.0396234,106.782762 66.23,106.392558 C66.6203556,105.599896 66.8916355,104.753493 67.035,103.88093 C67.1030041,103.474217 67.1381189,103.06264 67.14,102.650233 C67.14,101.133209 66.8483333,99.9979535 66.265,99.2444651 C65.6617556,98.4848528 64.7309655,98.0640491 63.765,98.1142326 C63.2914766,98.1044185 62.8212246,98.1951406 62.385,98.3804651 C61.9648441,98.576901 61.58888,98.8571946 61.28,99.2042791 C60.8998965,99.6395144 60.5648392,100.11246 60.28,100.615814 C59.9466667,101.185116 59.565,101.854884 59.135,102.625116 C58.6716667,103.482419 58.2333333,104.215814 57.82,104.825302 C57.4614819,105.377874 57.0366202,105.884006 56.555,106.332279 C56.1491109,106.704572 55.6754239,106.994541 55.16,107.186233 C54.6100351,107.375854 54.0313632,107.467648 53.45,107.457488 C52.6962005,107.475336 51.9500207,107.302606 51.28,106.955163 C50.6417982,106.612601 50.0842356,106.136383 49.645,105.558698 C49.1795952,104.94026 48.8289872,104.24259 48.61,103.499163 C48.3661656,102.684637 48.2448263,101.838084 48.25,100.987535 C48.2118799,99.6412535 48.43433,98.3003445 48.905,97.0392558 L50.945,97.0392558 C50.2512778,98.3123799 49.9062045,99.747628 49.945,101.198512 C49.9412316,101.76659 50.0135468,102.332596 50.16,102.881302 C50.2883897,103.375089 50.5015895,103.84257 50.79,104.262698 C51.0590054,104.649857 51.4131606,104.969564 51.825,105.197023 C52.268088,105.432562 52.7638408,105.550159 53.265,105.538605 C53.7223226,105.549161 54.1773564,105.470695 54.605,105.307535 C55.0064853,105.137077 55.3689412,104.885767 55.67,104.569116 C56.05535,104.163686 56.3910661,103.71342 56.67,103.227907 C57.0033333,102.675349 57.38,102.005581 57.8,101.218605 C58.1946915,100.466096 58.628628,99.7350337 59.1,99.0284651 C59.476312,98.4581397 59.9194901,97.9353207 60.42,97.4712558 C60.8476228,97.0765116 61.3420747,96.7617888 61.88,96.5419535 C62.4271558,96.3314876 63.0091654,96.2275001 63.595,96.2355349 C64.3899126,96.2230875 65.1769742,96.3949837 65.895,96.7378605 C66.5444645,97.0541768 67.1086671,97.5227996 67.54,98.104186 C68.0010349,98.7332988 68.3402577,99.4438679 68.54,100.198884 C68.8679214,101.436386 68.9545115,102.725927 68.795,103.996465 C68.745,104.435163 68.6716667,104.877209 68.575,105.322605 C68.4826071,105.753754 68.3674443,106.179658 68.23,106.598512 C68.1239844,106.949917 67.9762554,107.287227 67.79,107.603163 L65.555,107.502698 Z" id="Shape" fill="#000000" fill-rule="nonzero"></path>
                    <polygon id="Shape" fill="#000000" fill-rule="nonzero" points="50.245 87.2991628 68.475 87.2991628 68.475 89.1577674 50.245 89.1577674 50.245 94.9244651 48.55 94.9244651 48.55 81.5224186 50.245 81.5224186"></polygon>
                    <path d="M60.47,65.0662326 C66.0366667,65.0662326 68.82,67.5226047 68.82,72.4353488 C68.82,77.1237209 66.1383333,79.467907 60.775,79.467907 L48.55,79.467907 L48.55,77.6243721 L60.61,77.6243721 C62.7966667,77.6243721 64.4316667,77.1823256 65.515,76.2982326 C66.5983333,75.4141395 67.14,74.0461395 67.14,72.1942326 C67.14,68.6946977 65.0283333,66.9449302 60.805,66.9449302 L48.55,66.9449302 L48.55,65.0662326 L60.47,65.0662326 Z" id="Shape" fill="#000000" fill-rule="nonzero"></path>
                    <path d="M68.475,61.2837209 L48.55,61.2837209 L48.55,56.0243721 C48.55,52.5985116 49.3666667,50.0115349 51,48.2634419 C52.6333333,46.5153488 55.0483333,45.6413023 58.245,45.6413023 C59.6764627,45.6228123 61.0989008,45.8714916 62.44,46.3746977 C63.65695,46.8352259 64.7592453,47.5569361 65.67,48.4894884 C66.5868801,49.4476291 67.2922396,50.5893273 67.74,51.84 C68.2455062,53.2644674 68.4927497,54.768439 68.47,56.2805581 L68.475,61.2837209 Z M50.245,59.4251163 L66.795,59.4251163 L66.795,56.355907 C66.8143824,55.1028511 66.6268395,53.8552367 66.24,52.663814 C65.9024264,51.6354379 65.3442949,50.6940331 64.605,49.9060465 C63.8608906,49.1352334 62.9509687,48.5458446 61.945,48.1830698 C60.7765774,47.7689204 59.5438142,47.568175 58.305,47.5903256 C52.9316667,47.5903256 50.245,50.4368372 50.245,56.1298605 L50.245,59.4251163 Z" id="Shape" fill="#000000" fill-rule="nonzero"></path>
                    <polygon id="Shape" fill="#000000" fill-rule="nonzero" points="68.475 40.7737674 68.475 42.6323721 48.55 42.6323721 48.55 40.7737674"></polygon>
                    <path d="M68.82,28.3964651 C68.8406651,29.7358123 68.5728823,31.0638183 68.035,32.2894884 C67.5359484,33.4110121 66.8047053,34.4127998 65.89,35.228093 C64.9522815,36.051326 63.863576,36.6826748 62.685,37.0866977 C61.4128186,37.5266037 60.0753826,37.7457335 58.73,37.7346977 C57.2795361,37.7517967 55.8358757,37.5329682 54.455,37.0866977 C53.2303497,36.6918307 52.1000741,36.0471081 51.135,35.1929302 C50.2018581,34.3504435 49.4659196,33.3108773 48.98,32.1488372 C48.4470139,30.8480337 48.184959,29.451315 48.21,28.0448372 C48.1879485,26.7343852 48.4453831,25.4343741 48.965,24.232186 C49.4510742,23.1337795 50.1673805,22.1537012 51.065,21.3588837 C51.9936944,20.5472428 53.0726188,19.9276032 54.24,19.5354419 C55.5287736,19.1014386 56.8808338,18.8874987 58.24,18.9025116 C59.6653131,18.8901607 61.0838879,19.1002932 62.445,19.5253953 C63.6731967,19.9047676 64.8137674,20.5263753 65.8,21.3538605 C66.7518823,22.1671905 67.5118823,23.1829492 68.025,24.3276279 C68.5797339,25.6101982 68.850969,26.9983887 68.82,28.3964651 L68.82,28.3964651 Z M49.895,28.2407442 C49.8738452,29.3532324 50.110045,30.4554665 50.585,31.4606512 C51.0274643,32.3751157 51.6620449,33.1823136 52.445,33.8266047 C53.2599985,34.4851723 54.1936908,34.9797726 55.195,35.2833488 C56.28247,35.6164807 57.4130996,35.7857636 58.55,35.7856744 C59.647382,35.7988456 60.7407325,35.6499052 61.795,35.3436279 C62.7834568,35.0634079 63.7110574,34.6000059 64.53,33.9773023 C65.327166,33.3606354 65.9750256,32.5706578 66.425,31.6666047 C66.9169797,30.6505231 67.1603937,29.5311218 67.135,28.4014884 C67.1585891,27.2724793 66.9385467,26.1517273 66.49,25.1162791 C66.0814842,24.2003591 65.4690823,23.3909097 64.7,22.7503256 C63.894038,22.0951368 62.9658579,21.6083938 61.97,21.3186977 C60.8475707,20.9810417 59.681659,20.8117737 58.51,20.8163721 C57.3894262,20.8108642 56.273059,20.9544374 55.19,21.2433488 C54.1974606,21.5007366 53.2648407,21.9512955 52.445,22.5694884 C51.6557299,23.1789565 51.018855,23.9649931 50.585,24.8651163 C50.092956,25.9287256 49.8566021,27.0936228 49.895,28.2658605 L49.895,28.2407442 Z" id="Shape" fill="#000000" fill-rule="nonzero"></path>
                    <rect id="_Slice_4" x="0.355" y="0" width="68.5" height="108"></rect>
                </g>
            </g>
        </g>
    </g>
</svg>